<svg width="45" height="41" viewBox="0 0 45 41" fill="none" xmlns="http://www.w3.org/2000/svg">
<path fill-rule="evenodd" clip-rule="evenodd" d="M37.6875 10.0938H30.1133C30.241 9.44529 30.3051 8.78591 30.3046 8.125C30.3046 3.91381 27.2221 0.8125 22.2187 0.8125C18.236 0.8125 17.2087 5.07845 15.5647 7.73687C14.8849 8.82786 14.0711 9.78622 13.2927 10.6595L13.2812 10.6723L13.2698 10.6853C11.9234 12.2213 11.2293 12.7656 10.6172 12.7656H10.3817C9.87662 12.3304 9.19204 12.0625 8.43759 12.0625H2.8125C1.25921 12.0625 0 13.1958 0 14.5938V34.8438C0 36.2417 1.25921 37.375 2.8125 37.375H8.4375C9.19195 37.375 9.87653 37.1071 10.3816 36.6719H10.6171C13.1385 36.6719 16.5178 40.1875 21.7968 40.1875H23.6688C29.1656 40.1875 32.3524 36.7898 32.4526 32.1767C33.5496 30.6111 34.0777 28.5921 33.8575 26.658C34.1705 26.0435 34.4047 25.3919 34.5544 24.7188H37.6875C41.6808 24.7188 45 21.4155 45 17.4062C45 13.4425 41.6513 10.0938 37.6875 10.0938ZM29.6872 20.5H37.6875C39.3552 20.5 40.7812 19.074 40.7812 17.4062C40.7812 15.7627 39.3069 14.3125 37.6875 14.3125H23.7656C23.7656 12.7898 26.0859 11.2187 26.0859 8.125C26.0859 5.80469 24.2732 5.03125 22.2188 5.03125C21.4458 5.03125 20.4218 7.90633 19.1491 9.96192C18.3516 11.2429 17.4331 12.3547 16.4421 13.4666C15.0263 15.0815 13.4683 16.6862 11.25 16.9467V32.4816C15.0108 32.8123 17.7986 35.9688 21.7969 35.9688H23.6689C27.2305 35.9688 28.6895 34.0178 28.1161 30.5789C29.4004 29.8756 30.2389 27.5924 29.2521 25.8657C30.9541 24.2639 30.8154 21.7893 29.6872 20.5ZM5.625 33.8594C6.78999 33.8594 7.73438 32.915 7.73438 31.75C7.73438 30.585 6.78999 29.6406 5.625 29.6406C4.46001 29.6406 3.51562 30.585 3.51562 31.75C3.51562 32.915 4.46001 33.8594 5.625 33.8594Z" fill="#247bd8"/>
<path d="M37.6875 20.5H29.6872C30.8154 21.7893 30.9541 24.2639 29.2521 25.8657C30.2389 27.5924 29.4004 29.8756 28.1161 30.5789C28.6895 34.0178 27.2305 35.9688 23.6689 35.9688H21.7969C17.7986 35.9688 15.0108 32.8123 11.25 32.4816V16.9467C13.4683 16.6862 15.0263 15.0815 16.4421 13.4666C17.4331 12.3547 18.3516 11.2429 19.1491 9.96192C20.4218 7.90633 21.4458 5.03125 22.2188 5.03125C24.2732 5.03125 26.0859 5.80469 26.0859 8.125C26.0859 11.2187 23.7656 12.7898 23.7656 14.3125H37.6875C39.3069 14.3125 40.7812 15.7627 40.7812 17.4062C40.7812 19.074 39.3552 20.5 37.6875 20.5Z" fill="white"/>
</svg>
