<svg width="45" height="45" viewBox="0 0 45 45" fill="none" xmlns="http://www.w3.org/2000/svg">
<path fill-rule="evenodd" clip-rule="evenodd" d="M2.40048 16.3551C1.36531 16.4602 0.563156 15.528 0.897578 14.609L5.88314 0.901645C6.24434 -0.09088 7.63928 -0.320292 8.34288 0.496988L12.0141 4.76155C15.3224 3.2186 19.0014 2.44194 22.7358 2.52187C27.6818 2.62807 32.4566 4.23157 36.3386 7.09045C40.2206 9.94934 42.9991 13.908 44.2542 18.3688C45.5096 22.8293 45.1734 27.5498 43.2965 31.8165C41.4196 36.0834 38.1041 39.6651 33.8507 42.0205C29.5972 44.3757 24.637 45.377 19.7192 44.8725C14.8017 44.3683 10.1936 42.3859 6.59129 39.2248C3.33538 36.3681 1.06109 32.6885 0.035887 28.6514C-0.145282 27.938 0.37971 27.2503 1.15509 27.1263L3.88715 26.6892C4.66253 26.5652 5.3929 27.0525 5.58974 27.7625C6.39844 30.679 8.07682 33.3331 10.444 35.4101C13.1578 37.7915 16.6291 39.2848 20.3339 39.6648C24.0388 40.0448 27.7755 39.2904 30.9799 37.5162C34.1842 35.7417 36.6821 33.0435 38.0959 29.829C39.5099 26.6146 39.7631 23.0585 38.8177 19.698C37.872 16.3376 35.7788 13.3552 32.8542 11.2015C29.9296 9.04762 26.3324 7.83976 22.6065 7.75984C20.2046 7.70833 17.8334 8.12732 15.6403 8.97407L18.7934 12.6367C19.497 13.4542 18.9546 14.6738 17.8366 14.7872L2.40048 16.3551Z" fill="#252525"/>
</svg>
